<svg width="420" height="120" viewBox="0 0 420 120" xmlns="http://www.w3.org/2000/svg" role="img" aria-label="NearNect Logo Monochrome">
  <rect x="10" y="10" width="100" height="100" rx="20" fill="#2d3436"/>
  <g transform="translate(20,20)">
    <path d="M8 80 V18 a8 8 0 0 1 8-8 a8 8 0 0 1 6 3 l32 40 a3 3 0 0 0 5-2 V18 a8 8 0 0 1 8-8 a8 8 0 0 1 8 8 v62 a8 8 0 0 1-8 8 a8 8 0 0 1-6-3 L33 46 a3 3 0 0 0-5 2 v32 a8 8 0 0 1-8 8 a8 8 0 0 1-8-8z" fill="#ffffff"/>
  </g>
  <g font-family="Poppins, Arial, sans-serif" font-weight="700" font-size="44" fill="#2d3436" letter-spacing="0.5">
    <text x="130" y="54" dominant-baseline="middle">NearNect</text>
  </g>
</svg>


