<svg width="420" height="120" viewBox="0 0 420 120" xmlns="http://www.w3.org/2000/svg" role="img" aria-label="NearNect Logo Horizontal">
  <defs>
    <linearGradient id="g" x1="0" y1="0" x2="1" y2="1">
      <stop offset="0%" stop-color="#6c5ce7"/>
      <stop offset="100%" stop-color="#E91E63"/>
    </linearGradient>
  </defs>
  <!-- Mark -->
  <rect x="10" y="10" width="100" height="100" rx="20" fill="url(#g)"/>
  <g transform="translate(20,20)">
    <path d="M8 80 V18 a8 8 0 0 1 8-8 a8 8 0 0 1 6 3 l32 40 a3 3 0 0 0 5-2 V18 a8 8 0 0 1 8-8 a8 8 0 0 1 8 8 v62 a8 8 0 0 1-8 8 a8 8 0 0 1-6-3 L33 46 a3 3 0 0 0-5 2 v32 a8 8 0 0 1-8 8 a8 8 0 0 1-8-8z" fill="#fff"/>
  </g>
  <!-- Wordmark -->
  <g font-family="Poppins, Arial, sans-serif" font-weight="700" font-size="44" fill="#2d3436" letter-spacing="0.5">
    <text x="130" y="54" dominant-baseline="middle">Near</text>
    <text x="255" y="54" dominant-baseline="middle" fill="url(#g)">Nect</text>
  </g>
</svg>


